<svg width="830" height="824" viewBox="0 0 830 824" fill="none" xmlns="http://www.w3.org/2000/svg">
<path opacity="0.7" d="M112.764 275.364C112.764 275.364 66.483 394.02 131.522 513.5C196.561 632.98 330.523 696.099 437.742 750.071C544.961 804.043 656.298 777.757 709.202 689.358C762.106 600.96 689.547 537.858 689.448 411.802C689.348 285.747 708.455 252.375 639.648 145.881C570.841 39.3872 402.168 15.8043 274.614 94.793C147.059 173.782 112.764 275.364 112.764 275.364Z" fill="white"/>
<path d="M105.725 229.336C150.064 143.903 232.4 79.2688 334.905 70.1719C405.406 64.0692 475.669 84.2502 531.997 126.781C559.984 148.205 584.851 175.479 601.368 206.61C620.325 242.371 625.853 283.604 645.358 319.201C669.611 363.45 715.161 381.71 745.755 419.943C770.937 451.437 779.586 493.642 776.697 533.754C771.419 606.975 728.209 676.488 664.647 714.013C610.913 745.737 546.14 754.487 483.707 751.603C387.427 747.17 291.579 715.644 215.75 656.596C139.921 597.548 85.4236 510.254 72.5088 415.444C63.7274 351.024 76.4928 285.648 105.725 229.336Z" fill="#2AEF88"/>
<path opacity="0.7" d="M105.725 229.336C150.064 143.903 232.4 79.2688 334.905 70.1719C405.406 64.0692 475.669 84.2502 531.997 126.781C559.984 148.205 584.851 175.479 601.368 206.61C620.325 242.371 625.853 283.604 645.358 319.201C669.611 363.45 715.161 381.71 745.755 419.943C770.937 451.437 779.586 493.642 776.697 533.754C771.419 606.975 728.209 676.488 664.647 714.013C610.913 745.737 546.14 754.487 483.707 751.603C387.427 747.17 291.579 715.644 215.75 656.596C139.921 597.548 85.4236 510.254 72.5088 415.444C63.7274 351.024 76.4928 285.648 105.725 229.336Z" fill="white"/>
<path d="M76.4762 260.565C78.435 268.278 77.4722 254.089 81.3068 236.752C85.1414 219.415 91.7316 226.435 91.7316 226.435" stroke="#263238" stroke-linecap="round" stroke-linejoin="round"/>
<path d="M75.281 242.849L87.316 237.955" stroke="#263238" stroke-linecap="round" stroke-linejoin="round"/>
<path d="M97.2594 232.071C97.2594 232.071 90.0716 246.903 100.911 253.133" stroke="#263238" stroke-linecap="round" stroke-linejoin="round"/>
<path d="M107.468 227.918C107.468 227.918 119.354 234.51 111.917 248.65" stroke="#263238" stroke-linecap="round" stroke-linejoin="round"/>
<path d="M99.3344 237.081L107.85 243.245" stroke="#263238" stroke-linecap="round" stroke-linejoin="round"/>
<path d="M106.008 234.362L99.351 244.893" stroke="#263238" stroke-linecap="round" stroke-linejoin="round"/>
<path d="M144.249 392.198C145.869 382.399 139.181 373.152 129.311 371.544C119.44 369.935 110.126 376.575 108.506 386.374C106.886 396.173 113.574 405.42 123.445 407.028C133.315 408.636 142.629 401.996 144.249 392.198Z" stroke="#263238" stroke-linecap="round" stroke-linejoin="round"/>
<path d="M154.992 415.853C165.859 413.64 172.862 403.101 170.633 392.312C168.404 381.524 157.788 374.572 146.921 376.784C136.054 378.997 129.051 389.536 131.28 400.325C133.509 411.113 144.125 418.065 154.992 415.853Z" stroke="#263238" stroke-linecap="round" stroke-linejoin="round"/>
<path d="M142.876 381.858L134.543 384.808" stroke="#263238" stroke-linecap="round" stroke-linejoin="round"/>
<path d="M144.038 385.269L132.053 389.571" stroke="#263238" stroke-linecap="round" stroke-linejoin="round"/>
<path d="M144.486 389.389L131.107 394.498" stroke="#263238" stroke-linecap="round" stroke-linejoin="round"/>
<path d="M143.54 395.009L131.339 400.546" stroke="#263238" stroke-linecap="round" stroke-linejoin="round"/>
<path d="M141.382 399.327L132.119 403.15" stroke="#263238" stroke-linecap="round" stroke-linejoin="round"/>
<path d="M135.124 361.884C134.609 360.236 128.733 359.215 128.484 363.532C128.235 367.85 134.676 364.257 136.502 361.884C136.502 361.884 133.182 366.317 134.576 367.191" stroke="#263238" stroke-linecap="round" stroke-linejoin="round"/>
<path d="M167.66 367.257L162.448 378.018C162.448 378.018 165.054 372.629 167.843 373.074C171.279 373.684 168.988 379.271 164.838 377.211" stroke="#263238" stroke-linecap="round" stroke-linejoin="round"/>
<path d="M734.899 542.967L743.082 550.646" stroke="#263238" stroke-linecap="round" stroke-linejoin="round"/>
<path d="M743.082 540.956L736.227 551.124" stroke="#263238" stroke-linecap="round" stroke-linejoin="round"/>
<path d="M751.133 543.873L759.334 540.841" stroke="#263238" stroke-linecap="round" stroke-linejoin="round"/>
<path d="M763.268 532.37L768.248 536.737" stroke="#263238" stroke-linecap="round" stroke-linejoin="round"/>
<path d="M772.066 527.113L765.758 548.603" stroke="#263238" stroke-linecap="round" stroke-linejoin="round"/>
<path d="M390.05 422.251L412.078 407.204L441.245 409.231L443.071 445.949L421.657 461.143L395.229 459.232L390.05 422.251Z" stroke="#263238" stroke-linecap="round" stroke-linejoin="round"/>
<path d="M395.229 459.232L416.56 443.988L443.071 445.949" stroke="#263238" stroke-linecap="round" stroke-linejoin="round"/>
<path d="M416.56 443.988L412.078 407.204" stroke="#263238" stroke-linecap="round" stroke-linejoin="round"/>
<path d="M390.05 422.251L419.15 425.596L441.245 409.231" stroke="#263238" stroke-linecap="round" stroke-linejoin="round"/>
<path d="M419.15 425.596L421.657 461.143" stroke="#263238" stroke-linecap="round" stroke-linejoin="round"/>
<path d="M647.151 298.898L637.39 329.007L667.768 324.936L647.151 298.898Z" stroke="#263238" stroke-linecap="round" stroke-linejoin="round"/>
<path d="M647.151 298.898L652.579 326.798" stroke="#263238" stroke-linecap="round" stroke-linejoin="round"/>
<path d="M651.716 322.332L655.268 321.772L656.098 326.502" stroke="#263238" stroke-linecap="round" stroke-linejoin="round"/>
<path d="M264.587 574.427L279.76 581.826" stroke="#263238" stroke-linecap="round" stroke-linejoin="round"/>
<path d="M274.863 568.774L270.514 584.513" stroke="#263238" stroke-linecap="round" stroke-linejoin="round"/>
<path d="M276.971 561.095C277.22 560.839 277.526 560.644 277.864 560.527C278.202 560.41 278.563 560.373 278.918 560.42C279.274 560.466 279.613 560.595 279.909 560.795C280.205 560.995 280.45 561.261 280.623 561.572C282.15 563.946 279.162 568.923 279.162 568.923L285.254 566.615" stroke="#263238" stroke-linecap="round" stroke-linejoin="round"/>
<path d="M383.709 56.032C398.201 64.1237 381.601 83.8997 381.601 95.4357C381.601 106.972 398.201 105.324 406.501 108.62C409.821 108.62 416.461 108.62 416.278 116.992" stroke="#263238" stroke-linecap="round" stroke-linejoin="round"/>
<path d="M367.557 66.5298C370.08 80.1587 385.817 75.3301 395.478 78.4448C412.078 83.8008 402.865 100.808 397.919 111.092C394.947 117.222 391.992 125.825 397.304 131.642" stroke="#263238" stroke-linecap="round" stroke-linejoin="round"/>
<path d="M369.682 71.8199L386.963 57.5647" stroke="#263238" stroke-linecap="round" stroke-linejoin="round"/>
<path d="M376.455 76.0717L389.469 65.3597" stroke="#263238" stroke-linecap="round" stroke-linejoin="round"/>
<path d="M384.107 86.9155L395.097 78.3459" stroke="#263238" stroke-linecap="round" stroke-linejoin="round"/>
<path d="M381.833 99.737L403.314 84.4106" stroke="#263238" stroke-linecap="round" stroke-linejoin="round"/>
<path d="M390.067 105.719L405.04 94.8094" stroke="#263238" stroke-linecap="round" stroke-linejoin="round"/>
<path d="M396.441 128.907L415.149 113.778" stroke="#263238" stroke-linecap="round" stroke-linejoin="round"/>
<path d="M396.906 117.008L409.107 108.488" stroke="#263238" stroke-linecap="round" stroke-linejoin="round"/>
<path d="M152.639 582.637C170.464 575.559 179.134 555.476 172.004 537.78C164.875 520.084 144.646 511.476 126.821 518.554C108.996 525.632 100.326 545.715 107.455 563.411C114.585 581.107 134.814 589.714 152.639 582.637Z" stroke="#263238" stroke-linecap="round" stroke-linejoin="round"/>
<path d="M148.47 517.208C160.588 503.085 170.897 495.092 174.864 497.696C180.907 501.635 170.067 528.53 150.662 557.749C131.256 586.968 110.622 607.469 104.58 603.514C100.596 600.927 103.949 588.369 112.249 571.741" stroke="#263238" stroke-linecap="round" stroke-linejoin="round"/>
<path d="M105.709 557.683C88.81 552.855 78.02 547.218 78.7006 542.719C79.68 535.6 108.879 533.952 143.756 539.143C178.633 544.334 206.056 554.173 205.01 561.259C204.263 566.203 190.07 568.461 169.901 567.703" stroke="#263238" stroke-linecap="round" stroke-linejoin="round"/>
<path d="M110.141 532.683C97.3922 509.842 91.0178 492.027 95.3338 489.242C101.011 485.6 122.956 509.232 144.354 541.978C165.751 574.724 178.483 604.322 172.823 607.98C169.071 610.386 158.198 600.861 145.067 584.644" stroke="#263238" stroke-linecap="round" stroke-linejoin="round"/>
<path d="M179.761 512.627C179.142 513.564 178.258 514.297 177.219 514.735C176.18 515.173 175.034 515.296 173.925 515.088C172.816 514.88 171.795 514.35 170.989 513.565C170.183 512.781 169.629 511.777 169.398 510.681C169.166 509.584 169.267 508.444 169.688 507.404C170.108 506.365 170.83 505.472 171.761 504.839C172.692 504.206 173.792 503.862 174.92 503.849C176.049 503.836 177.156 504.155 178.101 504.766C178.731 505.173 179.274 505.699 179.699 506.315C180.123 506.931 180.421 507.624 180.576 508.354C180.73 509.085 180.737 509.838 180.598 510.571C180.458 511.304 180.174 512.003 179.761 512.627Z" fill="#263238"/>
<path d="M160.854 599.46C160.235 600.397 159.35 601.131 158.312 601.569C157.273 602.007 156.127 602.129 155.018 601.921C153.909 601.713 152.887 601.183 152.081 600.399C151.276 599.614 150.722 598.61 150.49 597.514C150.259 596.417 150.36 595.277 150.78 594.238C151.201 593.198 151.922 592.305 152.854 591.672C153.785 591.04 154.884 590.695 156.013 590.682C157.141 590.669 158.248 590.988 159.194 591.599C159.824 592.006 160.367 592.533 160.791 593.148C161.216 593.764 161.514 594.457 161.668 595.187C161.822 595.918 161.83 596.671 161.69 597.404C161.55 598.137 161.266 598.836 160.854 599.46Z" fill="#263238"/>
<path d="M130.343 540.544C129.724 541.481 128.84 542.215 127.801 542.653C126.762 543.091 125.616 543.213 124.507 543.005C123.398 542.797 122.376 542.267 121.571 541.482C120.765 540.698 120.211 539.694 119.98 538.598C119.748 537.501 119.849 536.361 120.27 535.322C120.69 534.282 121.412 533.389 122.343 532.756C123.274 532.124 124.373 531.779 125.502 531.766C126.63 531.753 127.737 532.072 128.683 532.683C129.952 533.508 130.839 534.799 131.151 536.273C131.462 537.746 131.171 539.283 130.343 540.544Z" fill="#263238"/>
<path d="M494.398 293.871H513.953L523.73 277.062L513.953 260.252H494.398L484.62 277.062L494.398 293.871Z" stroke="#263238" stroke-linecap="round" stroke-linejoin="round"/>
<path d="M491.559 330.77L481.782 313.96H462.227" stroke="#263238" stroke-linecap="round" stroke-linejoin="round"/>
<path d="M464.85 277.062H484.405L494.182 260.252L484.405 243.426H464.85L455.072 260.252L464.85 277.062Z" stroke="#263238" stroke-linecap="round" stroke-linejoin="round"/>
<path d="M494.398 260.252H513.953L523.73 243.426L513.953 226.616H494.398L484.62 243.426L494.398 260.252Z" stroke="#263238" stroke-linecap="round" stroke-linejoin="round"/>
<path d="M494.182 262.856C495.631 262.856 496.805 261.69 496.805 260.252C496.805 258.814 495.631 257.648 494.182 257.648C492.734 257.648 491.559 258.814 491.559 260.252C491.559 261.69 492.734 262.856 494.182 262.856Z" fill="#263238"/>
<path d="M453.346 227.556C454.795 227.556 455.969 226.39 455.969 224.952C455.969 223.514 454.795 222.348 453.346 222.348C451.897 222.348 450.723 223.514 450.723 224.952C450.723 226.39 451.897 227.556 453.346 227.556Z" fill="#263238"/>
<path d="M488.936 330.77C488.936 330.255 489.09 329.752 489.378 329.323C489.667 328.895 490.076 328.562 490.555 328.364C491.035 328.167 491.562 328.116 492.071 328.216C492.58 328.317 493.047 328.565 493.414 328.929C493.781 329.293 494.03 329.757 494.132 330.262C494.233 330.767 494.181 331.291 493.982 331.767C493.784 332.242 493.448 332.649 493.016 332.935C492.585 333.221 492.078 333.374 491.559 333.374C491.215 333.374 490.874 333.307 490.555 333.176C490.237 333.045 489.948 332.853 489.705 332.611C489.461 332.369 489.268 332.082 489.136 331.767C489.004 331.451 488.936 331.112 488.936 330.77Z" fill="#263238"/>
<path d="M462.227 316.564C463.676 316.564 464.85 315.399 464.85 313.96C464.85 312.522 463.676 311.357 462.227 311.357C460.779 311.357 459.604 312.522 459.604 313.96C459.604 315.399 460.779 316.564 462.227 316.564Z" fill="#263238"/>
<path d="M542.654 243.904C542.654 243.385 542.809 242.878 543.1 242.447C543.391 242.015 543.804 241.679 544.287 241.482C544.77 241.284 545.302 241.233 545.814 241.335C546.327 241.438 546.797 241.689 547.166 242.057C547.534 242.425 547.784 242.894 547.884 243.403C547.984 243.912 547.929 244.44 547.727 244.918C547.525 245.397 547.184 245.805 546.748 246.091C546.311 246.377 545.8 246.528 545.277 246.524C544.931 246.524 544.589 246.456 544.269 246.325C543.95 246.193 543.66 245.999 543.416 245.756C543.173 245.512 542.98 245.223 542.849 244.906C542.718 244.588 542.652 244.247 542.654 243.904Z" fill="#263238"/>
<path d="M481.582 316.564C483.031 316.564 484.205 315.399 484.205 313.96C484.205 312.522 483.031 311.357 481.582 311.357C480.134 311.357 478.96 312.522 478.96 313.96C478.96 315.399 480.134 316.564 481.582 316.564Z" fill="#263238"/>
<path d="M521.107 243.904C521.107 243.386 521.262 242.879 521.552 242.448C521.842 242.017 522.254 241.681 522.736 241.483C523.219 241.285 523.749 241.233 524.261 241.334C524.773 241.435 525.244 241.685 525.613 242.051C525.982 242.418 526.233 242.885 526.335 243.393C526.437 243.901 526.385 244.428 526.185 244.907C525.985 245.386 525.647 245.795 525.213 246.083C524.779 246.371 524.269 246.524 523.747 246.524C523.047 246.524 522.375 246.248 521.88 245.757C521.385 245.265 521.107 244.599 521.107 243.904Z" fill="#263238"/>
<path d="M491.559 293.888C491.556 293.368 491.708 292.859 491.997 292.426C492.286 291.992 492.698 291.654 493.181 291.454C493.664 291.253 494.196 291.2 494.709 291.301C495.223 291.401 495.695 291.651 496.065 292.019C496.435 292.386 496.687 292.854 496.788 293.364C496.889 293.874 496.836 294.402 496.634 294.882C496.432 295.361 496.091 295.77 495.655 296.057C495.218 296.344 494.705 296.495 494.182 296.492C493.488 296.487 492.823 296.212 492.332 295.724C491.841 295.237 491.563 294.577 491.559 293.888Z" fill="#263238"/>
<path d="M523.747 243.871H545.277" stroke="#263238" stroke-linecap="round" stroke-linejoin="round"/>
<path d="M494.182 293.888L481.583 313.96" stroke="#263238" stroke-linecap="round" stroke-linejoin="round"/>
<path d="M464.85 243.426L453.346 224.952" stroke="#263238" stroke-linecap="round" stroke-linejoin="round"/>
<path d="M603.543 177.16C605.798 169.592 610.499 162.97 616.921 158.317C623.342 153.663 631.127 151.237 639.076 151.411C647.024 151.585 654.694 154.351 660.902 159.281C667.11 164.211 671.512 171.033 673.429 178.693" stroke="#263238" stroke-linecap="round" stroke-linejoin="round"/>
<path d="M634.12 223.04C625.288 222.037 617.137 217.842 611.219 211.257C605.302 204.671 602.032 196.154 602.032 187.328" stroke="#263238" stroke-linecap="round" stroke-linejoin="round"/>
<path d="M674.475 187.328C674.475 196.858 670.662 205.998 663.876 212.738C657.09 219.478 647.886 223.267 638.287 223.271" stroke="#263238" stroke-linecap="round" stroke-linejoin="round"/>
<path d="M676.533 164.536C687.854 163.103 695.44 163.877 696.619 167.239C698.96 173.93 674.74 188.35 642.52 199.457C610.299 210.565 582.295 214.125 579.938 207.417C578.693 203.841 585.034 198.057 596.123 191.745" stroke="#263238" stroke-linecap="round" stroke-linejoin="round"/>
<path d="M481.583 139.915L485.052 146.886L492.804 148.007L487.193 153.445L488.521 161.109L481.583 157.483L474.644 161.109L475.972 153.445L470.361 148.007L478.113 146.886L481.583 139.915Z" stroke="#263238" stroke-linecap="round" stroke-linejoin="round"/>
<path d="M236.5 121.342C236.496 127.54 234.015 133.483 229.602 137.867C225.189 142.252 219.204 144.719 212.961 144.727C212.198 144.727 211.451 144.694 210.72 144.628C206.177 144.201 201.857 142.472 198.285 139.652C194.712 136.832 192.042 133.043 190.599 128.745C189.155 124.446 189 119.825 190.153 115.441C191.306 111.057 193.717 107.1 197.092 104.051C200.468 101.002 204.663 98.9918 209.168 98.2653C213.673 97.5388 218.293 98.1272 222.467 99.9587C226.641 101.79 230.19 104.786 232.681 108.582C235.172 112.379 236.499 116.811 236.5 121.342Z" stroke="#263238" stroke-linecap="round" stroke-linejoin="round"/>
<path d="M232.732 125.561C232.735 126.279 232.524 126.982 232.125 127.58C231.725 128.178 231.156 128.646 230.489 128.922C229.822 129.199 229.087 129.274 228.378 129.136C227.668 128.998 227.016 128.654 226.504 128.147C225.991 127.641 225.642 126.995 225.499 126.291C225.357 125.587 225.428 124.857 225.704 124.194C225.98 123.531 226.448 122.963 227.049 122.564C227.65 122.165 228.357 121.952 229.08 121.952C230.046 121.952 230.972 122.332 231.656 123.008C232.341 123.684 232.728 124.602 232.732 125.561Z" stroke="#263238" stroke-linecap="round" stroke-linejoin="round"/>
<path d="M199.947 134.757C199.948 135.616 199.759 136.465 199.391 137.242C199.024 138.02 198.488 138.708 197.822 139.256C194.727 136.719 192.343 133.433 190.9 129.714C191.813 129.157 192.866 128.866 193.938 128.874C194.723 128.863 195.503 129.007 196.231 129.298C196.96 129.588 197.623 130.02 198.182 130.567C198.741 131.115 199.185 131.767 199.488 132.486C199.791 133.206 199.947 133.977 199.947 134.757Z" stroke="#263238" stroke-linecap="round" stroke-linejoin="round"/>
<path d="M229.08 138.432C224.727 142.525 218.957 144.802 212.961 144.793C212.198 144.793 211.451 144.76 210.72 144.694C210.587 144.06 210.52 143.414 210.521 142.766C210.522 140.575 211.269 138.449 212.639 136.732C214.01 135.015 215.924 133.808 218.073 133.306C220.221 132.804 222.477 133.038 224.475 133.968C226.472 134.898 228.095 136.471 229.08 138.432Z" stroke="#263238" stroke-linecap="round" stroke-linejoin="round"/>
<path d="M207.251 112.064C210.24 112.064 212.663 109.659 212.663 106.692C212.663 103.724 210.24 101.319 207.251 101.319C204.262 101.319 201.839 103.724 201.839 106.692C201.839 109.659 204.262 112.064 207.251 112.064Z" stroke="#263238" stroke-linecap="round" stroke-linejoin="round"/>
<path d="M212.264 121.952C212.264 122.444 212.117 122.925 211.842 123.335C211.566 123.744 211.175 124.063 210.717 124.251C210.259 124.439 209.755 124.489 209.269 124.393C208.782 124.297 208.336 124.06 207.985 123.712C207.635 123.364 207.396 122.92 207.299 122.437C207.202 121.955 207.252 121.454 207.442 121C207.632 120.545 207.953 120.156 208.365 119.883C208.777 119.609 209.262 119.464 209.758 119.464C210.087 119.464 210.413 119.528 210.717 119.653C211.021 119.778 211.297 119.961 211.53 120.192C211.763 120.423 211.947 120.698 212.073 121C212.199 121.302 212.264 121.625 212.264 121.952Z" stroke="#263238" stroke-linecap="round" stroke-linejoin="round"/>
<path d="M232.068 107.697C231.409 107.911 230.72 108.017 230.026 108.01C229.12 108.01 228.223 107.832 227.386 107.488C226.549 107.143 225.789 106.638 225.149 106.001C224.509 105.364 224.002 104.608 223.657 103.777C223.312 102.945 223.135 102.054 223.137 101.154C223.12 100.869 223.12 100.583 223.137 100.297C226.693 101.98 229.764 104.525 232.068 107.697Z" stroke="#263238" stroke-linecap="round" stroke-linejoin="round"/>
<path d="M773.311 392.702L775.851 387.033L771.734 384.792C771.886 383.793 771.913 382.781 771.817 381.776L776.033 379.732L773.792 373.948L769.277 375.233C768.672 374.426 767.97 373.695 767.186 373.058L768.729 368.641L763.019 366.12L760.745 370.207C759.736 370.083 758.716 370.083 757.707 370.207L755.665 366.021L749.822 368.246L751.133 372.712C750.319 373.323 749.578 374.025 748.926 374.805L744.493 373.272L742.02 378.859L746.137 381.116C745.985 382.115 745.957 383.127 746.054 384.132L741.821 386.159L744.062 391.96L748.577 390.658C749.186 391.467 749.888 392.202 750.669 392.85L749.141 397.25L754.852 399.772L757.109 395.685C758.115 395.835 759.135 395.863 760.147 395.767L762.206 399.97L768.032 397.745L766.737 393.262C767.547 392.657 768.282 391.96 768.929 391.186L773.311 392.702ZM755.947 389.538C754.637 388.959 753.528 388.007 752.762 386.803C751.996 385.599 751.607 384.197 751.643 382.773C751.68 381.349 752.141 379.969 752.968 378.805C753.795 377.641 754.951 376.747 756.29 376.236C757.629 375.725 759.091 375.619 760.49 375.932C761.89 376.245 763.164 376.963 764.152 377.995C765.141 379.027 765.799 380.327 766.043 381.73C766.288 383.134 766.108 384.578 765.526 385.879C764.741 387.623 763.293 388.987 761.498 389.672C759.702 390.358 757.707 390.31 755.947 389.538Z" stroke="#263238" stroke-linecap="round" stroke-linejoin="round"/>
<path d="M742.966 421.789L746.419 414.093L740.841 411.028C741.04 409.674 741.074 408.302 740.941 406.941L746.685 404.172L743.68 396.311L737.555 398.074C736.736 396.972 735.783 395.976 734.716 395.108L736.808 389.109L728.989 385.632L725.918 391.169C724.555 390.975 723.173 390.936 721.801 391.054L719.012 385.368L711.078 388.401L712.854 394.465C711.751 395.293 710.749 396.244 709.866 397.3L703.84 395.289L700.387 402.985L705.965 406.051C705.766 407.404 705.733 408.776 705.865 410.138L700.122 412.906L703.176 420.767L709.301 419.02C710.125 420.118 711.078 421.114 712.14 421.987L710.048 427.969L717.817 431.397L720.888 425.843C722.251 426.046 723.633 426.084 725.005 425.959L727.794 431.644L735.729 428.628L733.952 422.547C735.054 421.725 736.057 420.78 736.94 419.729L742.966 421.789ZM719.394 417.488C717.612 416.7 716.106 415.404 715.066 413.766C714.026 412.127 713.499 410.219 713.551 408.283C713.603 406.347 714.233 404.47 715.36 402.89C716.488 401.309 718.062 400.096 719.884 399.404C721.706 398.712 723.694 398.572 725.596 399.001C727.498 399.431 729.229 400.411 730.57 401.818C731.911 403.225 732.801 404.995 733.128 406.904C733.456 408.813 733.205 410.776 732.409 412.544C731.882 413.718 731.127 414.777 730.188 415.661C729.249 416.545 728.143 417.236 726.934 417.695C725.725 418.155 724.437 418.373 723.143 418.337C721.85 418.301 720.575 418.013 719.394 417.488Z" stroke="#263238" stroke-linecap="round" stroke-linejoin="round"/>
<path d="M398.848 348.733C396.573 353.012 394.005 357.131 391.162 361.06C376.414 381.418 354.743 395.788 330.152 401.516C305.561 407.245 279.713 403.944 257.383 392.224C255.076 391.021 252.818 389.736 250.66 388.384C248.502 387.033 246.394 385.648 244.369 384.165C241.912 382.402 239.555 380.523 237.297 378.562C237.153 378.455 237.019 378.333 236.899 378.2C222.188 365.275 211.436 348.504 205.871 329.801C200.306 311.098 200.153 291.219 205.428 272.433C210.703 253.648 221.195 236.715 235.704 223.568C250.213 210.421 268.154 201.591 287.478 198.087C306.802 194.583 326.729 196.545 344.983 203.751C363.237 210.956 379.081 223.114 390.705 238.834C402.329 254.555 409.265 273.205 410.72 292.653C412.174 312.101 408.089 331.563 398.931 348.816L398.848 348.733Z" fill="#2AEF88"/>
<mask id="mask0_86_49" style="mask-type:luminance" maskUnits="userSpaceOnUse" x="201" y="196" width="211" height="209">
<path d="M398.848 348.733C396.573 353.012 394.005 357.131 391.162 361.06C376.414 381.418 354.743 395.788 330.152 401.516C305.561 407.245 279.713 403.944 257.383 392.224C255.076 391.021 252.818 389.736 250.66 388.384C248.502 387.033 246.394 385.648 244.369 384.165C241.912 382.402 239.555 380.523 237.297 378.562C237.153 378.455 237.019 378.333 236.899 378.2C222.188 365.275 211.436 348.504 205.871 329.801C200.306 311.098 200.153 291.219 205.428 272.433C210.703 253.648 221.195 236.715 235.704 223.568C250.213 210.421 268.154 201.591 287.478 198.087C306.802 194.583 326.729 196.545 344.983 203.751C363.237 210.956 379.081 223.114 390.705 238.834C402.329 254.555 409.265 273.205 410.72 292.653C412.174 312.101 408.089 331.563 398.931 348.816L398.848 348.733Z" fill="white"/>
</mask>
<g mask="url(#mask0_86_49)">
<g opacity="0.6">
<path d="M398.848 348.733C396.573 353.012 394.005 357.131 391.162 361.06L389.137 359.412L385.651 357.583L381.983 355.671L382.597 351.271L382.398 347.3C382.182 343.328 385.07 346.574 387.378 345.371C389.177 344.095 390.631 342.396 391.611 340.427C391.611 340.427 393.271 335.137 392.723 333.011C391.829 330.562 390.775 328.173 389.569 325.859L383.626 334.099L378.646 333.72L373.932 331.248L373.317 324.738L370.894 323.486L369.881 319.745L356.784 316.103L355.29 313.499C353.796 310.895 347.77 309.56 347.77 309.56L349.247 306.165L351.571 302.375C353.912 298.585 356.336 304.88 356.336 304.88L359.108 306.314L364.254 302.029L365.615 295.882L373.998 296.36C373.834 295.528 373.962 294.665 374.36 293.916C374.759 293.166 375.405 292.574 376.189 292.24C378.978 291.152 377.75 285.137 376.687 282.912C375.625 280.687 371.707 282.484 371.707 282.484C371.707 282.484 367.441 276.04 366.86 273.469C366.279 270.898 374.994 271.821 378.729 269.234C382.464 266.646 381.186 261.505 379.36 261.389C377.534 261.274 382.929 249.688 393.304 252.869C396.192 253.759 398.018 253.446 399.147 252.457C406.931 267.336 410.97 283.865 410.918 300.632C410.866 317.398 406.725 333.902 398.848 348.733Z" fill="white"/>
<path d="M326.256 304.155L322.704 308.588C322.704 308.588 321.193 305.012 319.035 306.94L315.715 309.873L313.308 316.564L308.992 319.333L306.353 317.965L303.863 316.647L301.157 315.229L298.568 320.173L296.459 324.129C297.487 326.07 298.765 327.871 300.261 329.485L304.842 337.51L310.42 340.312C312.746 340.398 315.061 340.673 317.342 341.136L321.177 343.13L319.816 351.37C319.816 351.37 316.927 356.034 315.002 354.748L313.059 353.48L309.905 364.323L309.773 370.289C309.773 370.289 307.897 371.064 306.004 371.69C304.112 372.316 305.307 371.987 301.34 373.206C297.372 374.426 297.688 374.376 294.467 375.283C291.722 376.237 289.081 377.462 286.582 378.941L286.865 384.676L279.278 385.78L275.029 383.539L276.075 379.913L276.573 374.244L275.992 370.009L274.166 366.268L279.278 361.67L278.15 358.786L275.245 353.051L269.103 356.347L265.949 357.995L258.811 354.814L258.03 350.513L255.64 342.784L253.416 337.972L249.465 332.665L248.469 328.1L250.693 323.914L251.872 321.706L248.236 316.844L247.24 313.384L241.115 307.863C241.115 307.863 242.891 307.748 242.493 305.292C242.094 302.836 245.995 298.7 245.995 298.7C248.203 299.854 254.827 304.435 254.827 304.435L260.62 305.226C260.62 305.226 261.782 305.226 262.911 303.051C264.229 301.05 265.778 299.208 267.526 297.563C267.526 297.563 264.853 288.351 266.762 287.115C268.671 285.879 270.613 279.847 270.613 279.847L272.14 276.963C272.14 276.963 268.538 275.397 267.858 273.502C267.177 271.607 258.296 274.128 258.296 274.128L252.171 278.347L247.34 282.055L245.248 285.994C245.248 285.994 240.982 280.902 240.966 283.753C240.64 286.676 239.994 289.555 239.04 292.339C239.04 292.339 239.92 292.8 238.758 295.008C237.596 297.217 236.334 297.101 233.778 297.415C230.445 297.448 227.115 297.222 223.818 296.739C223.818 296.739 222.158 302.836 223.303 303.891L224.432 304.913C224.432 304.913 222.656 309.346 220.896 308.423L216.613 306.182L210.621 308.588L203.981 315.872L202.503 315.576C198.434 288.477 205.304 260.879 221.621 238.783C237.938 216.687 262.381 201.879 289.637 197.579C290.019 199.227 290.434 200.776 290.434 200.776L288.774 208.917L286.649 212.938L284.823 216.382L282.25 221.228L288.84 227.259L287.429 234.395L283.86 236.62L282.831 241.976L288.956 253.858L290.616 258.522C289.591 260.755 289.086 263.188 289.139 265.641C289.139 265.641 289.886 270.091 293.156 271.854C296.426 273.617 300.726 275.694 300.726 275.694L300.377 282.286L298.9 283.934L301.356 291.037C308.843 293.954 308.129 296.393 308.843 293.954L309.573 291.531L314.67 289.702L321.16 297.398C321.915 297.388 322.661 297.567 323.328 297.918C323.996 298.27 324.563 298.782 324.978 299.409C326.871 301.782 329.825 299.722 326.256 304.155Z" fill="white"/>
<path d="M238.276 361.555C238.459 363.895 235.471 366.828 235.471 366.828L237.911 368.097L238.658 374.689L236.816 378.183C223.759 366.732 213.8 352.216 207.849 335.961L209.177 328.974L215.036 328.15C215.036 328.15 220.282 324.689 222.606 325.612C224.93 326.535 227.055 332.204 227.055 332.204C227.055 332.204 228.715 339.851 228.499 339.702H228.399H228.532L230.923 340.955L231.603 343.971L228.283 350.233H222.938C222.938 350.233 221.876 349.673 221.776 352.425C221.863 353.38 222.155 354.305 222.633 355.138C223.112 355.971 223.765 356.693 224.548 357.253L230.325 355.787L231.869 349.854L237.546 348.75C237.546 348.75 236.733 352.392 238.061 353.084L239.405 353.793L240.202 358.143C239.607 358.494 239.116 358.994 238.778 359.593C238.44 360.191 238.267 360.868 238.276 361.555Z" fill="white"/>
<path d="M265.733 370.882C265.218 369.465 265.002 368.229 261.467 366.383C257.931 364.538 258.147 365.197 256.752 366.729C256.152 367.518 255.332 368.114 254.394 368.445C253.456 368.776 252.44 368.827 251.473 368.592C249.149 368.081 250.361 370.685 250.361 370.685L250.926 377.722L244.369 384.149C246.394 385.632 248.491 387.038 250.66 388.368L252.054 384.116L262.944 387.28C260.637 386.604 261.998 383.473 261.998 383.473L259.674 382.254C259.674 382.254 266.247 372.267 265.733 370.882Z" fill="white"/>
<path d="M334.324 334.297L330.755 330.721L326.671 331.99L325.011 335.286L323.766 337.659L325.426 340.955L328.746 344.959L330.639 341.367C330.639 341.367 335.901 341.367 338.657 338.351C341.412 335.335 334.324 334.297 334.324 334.297Z" fill="white"/>
<path d="M323.833 318.163L330.473 321.624L330.738 320.075C331.084 318.833 331.696 317.681 332.531 316.696L327.452 311.357L323.833 318.163Z" fill="white"/>
<path d="M321.575 394.877L319.666 392.092L317.442 390.939H310.652L306.785 398.223C306.785 398.223 303.083 397.728 298.219 397.3C293.355 396.871 294.55 398.865 294.55 398.865L293.289 403.447C305.56 404.947 318.002 404.283 330.041 401.486C328.642 400.517 327.19 399.626 325.692 398.816L321.575 394.877Z" fill="white"/>
</g>
</g>
<path d="M398.848 348.733C396.573 353.012 394.005 357.131 391.162 361.06C376.414 381.418 354.743 395.788 330.152 401.516C305.561 407.245 279.713 403.944 257.383 392.224C255.076 391.021 252.818 389.736 250.66 388.384C248.502 387.033 246.394 385.648 244.369 384.165C241.912 382.402 239.555 380.523 237.297 378.562C237.153 378.455 237.019 378.333 236.899 378.2C222.188 365.275 211.436 348.504 205.871 329.801C200.306 311.098 200.153 291.219 205.428 272.433C210.703 253.648 221.195 236.715 235.704 223.568C250.213 210.421 268.154 201.591 287.478 198.087C306.802 194.583 326.729 196.545 344.983 203.751C363.237 210.956 379.081 223.114 390.705 238.834C402.329 254.555 409.265 273.205 410.72 292.653C412.174 312.101 408.089 331.563 398.931 348.816L398.848 348.733Z" stroke="#263238" stroke-linecap="round" stroke-linejoin="round"/>
<path d="M330.041 401.486C318.002 404.283 305.56 404.947 293.289 403.447L294.55 398.865C294.55 398.865 293.355 396.871 298.219 397.3C303.083 397.728 306.785 398.223 306.785 398.223L310.652 390.939H317.442L319.666 392.092L321.575 394.877L325.692 398.816C327.19 399.626 328.642 400.517 330.041 401.486Z" stroke="#263238" stroke-linecap="round" stroke-linejoin="round"/>
<path d="M399.213 252.474C398.085 253.462 396.259 253.776 393.37 252.886C382.995 249.705 377.617 261.274 379.426 261.406C381.236 261.538 382.514 266.745 378.795 269.25C375.077 271.755 366.345 270.898 366.926 273.486C367.507 276.073 371.774 282.5 371.774 282.5C371.774 282.5 375.592 280.72 376.671 282.929C377.75 285.137 378.978 291.169 376.189 292.256C375.405 292.591 374.759 293.182 374.36 293.932C373.962 294.682 373.834 295.544 373.998 296.376L365.615 295.898L364.254 302.045L359.108 306.33L356.336 304.896C356.336 304.896 353.912 298.601 351.571 302.392L349.247 306.182L347.77 309.577C347.77 309.577 353.796 310.912 355.29 313.516L356.784 316.119L369.881 319.761L370.894 323.502L373.317 324.755L373.932 331.264L378.812 333.802L383.792 334.181L389.735 325.941C390.941 328.255 391.995 330.644 392.889 333.094C393.47 335.22 391.777 340.51 391.777 340.51C390.797 342.479 389.343 344.177 387.544 345.454C385.17 346.657 382.265 343.41 382.564 347.382L382.763 351.354L382.149 355.754L385.817 357.665L389.303 359.495L391.328 361.143" stroke="#263238" stroke-linecap="round" stroke-linejoin="round"/>
<path d="M202.636 315.576L204.114 315.872L210.754 308.588L216.746 306.182L221.029 308.423C222.789 309.346 224.565 304.913 224.565 304.913L223.436 303.891C222.291 302.836 223.951 296.739 223.951 296.739C227.248 297.222 230.578 297.448 233.911 297.415C236.533 297.101 237.778 297.2 238.891 295.008C240.003 292.817 239.173 292.339 239.173 292.339C240.127 289.555 240.773 286.676 241.098 283.753C241.098 280.902 245.381 285.994 245.381 285.994L247.473 282.055L252.154 278.364L258.279 274.145C258.279 274.145 267.16 271.607 267.841 273.519C268.522 275.43 272.124 276.979 272.124 276.979L270.597 279.863C270.597 279.863 268.638 285.862 266.745 287.131C264.853 288.4 267.509 297.579 267.509 297.579C265.761 299.225 264.213 301.066 262.894 303.067C261.732 305.276 260.603 305.243 260.603 305.243L254.81 304.452C254.81 304.452 248.17 299.87 245.979 298.716C245.979 298.716 242.078 302.853 242.476 305.308C242.875 307.764 241.098 307.879 241.098 307.879L247.224 313.4L248.22 316.861L251.855 321.723L250.677 323.931L248.452 328.117L249.448 332.682L253.399 337.988L255.64 342.784L258.064 350.546L258.844 354.847L265.982 358.028L269.136 356.38L275.278 353.084L278.183 358.819L279.312 361.703L274.199 366.301L276.025 370.042L276.606 374.277L276.108 379.946L275.062 383.572L279.312 385.813L286.898 384.726L286.616 378.974C289.114 377.495 291.755 376.27 294.501 375.316C297.721 374.409 297.406 374.459 301.373 373.239C305.34 372.02 304.129 372.349 306.038 371.723C307.947 371.097 309.806 370.322 309.806 370.322L309.939 364.356L313.093 353.512L315.035 354.781C316.96 356.067 319.849 351.403 319.849 351.403L321.21 343.163L317.292 341.136C315.012 340.673 312.696 340.398 310.37 340.312L304.909 337.461L300.327 329.435C298.831 327.821 297.553 326.021 296.526 324.079L298.634 320.124L301.224 315.18L303.929 316.597L306.419 317.916L309.059 319.284L313.375 316.515L315.782 309.824L319.102 306.891C321.26 304.946 322.77 308.539 322.77 308.539L326.323 304.105C329.892 299.672 326.937 301.732 325.111 299.458C324.696 298.832 324.128 298.319 323.461 297.968C322.794 297.616 322.048 297.438 321.293 297.448L314.802 289.751L309.64 291.696L308.909 294.119C308.196 296.558 308.909 294.119 301.423 291.202L298.966 284.099L300.443 282.451L300.792 275.859C300.792 275.859 296.493 273.766 293.222 272.019C289.952 270.272 289.205 265.806 289.205 265.806C289.153 263.353 289.658 260.919 290.683 258.687L289.023 254.023L282.897 242.141L283.926 236.785L287.495 234.56L288.906 227.424L282.499 221.392L285.072 216.547L286.898 213.103L289.023 209.082L290.683 200.941C290.683 200.941 290.268 199.424 289.886 197.744" stroke="#263238" stroke-linecap="round" stroke-linejoin="round"/>
<path d="M237.38 378.546C237.251 378.399 237.106 378.266 236.948 378.15L238.791 374.656L238.044 368.064L235.604 366.795C235.604 366.795 238.592 363.862 238.409 361.522C238.377 360.824 238.534 360.13 238.864 359.512C239.194 358.895 239.685 358.376 240.285 358.012L239.488 353.661L238.144 352.952C236.816 352.26 237.629 348.618 237.629 348.618L231.952 349.722L230.408 355.655L224.631 357.122C223.848 356.561 223.195 355.84 222.716 355.007C222.238 354.173 221.946 353.248 221.859 352.293C221.959 349.541 223.021 350.101 223.021 350.101H228.366L231.686 343.839L231.006 340.823L228.615 339.57" stroke="#263238" stroke-linecap="round" stroke-linejoin="round"/>
<path d="M228.466 339.57C228.731 339.719 227.022 332.072 227.022 332.072C227.022 332.072 224.897 326.485 222.573 325.48C220.249 324.475 215.003 328.018 215.003 328.018L209.143 328.842L207.815 335.829" stroke="#263238" stroke-linecap="round" stroke-linejoin="round"/>
<path d="M252.054 384.116L250.66 388.368C248.447 387.027 246.35 385.621 244.369 384.149L250.926 377.722L250.361 370.685C250.361 370.685 249.149 368.081 251.473 368.592C252.44 368.827 253.456 368.776 254.394 368.445C255.332 368.114 256.152 367.518 256.752 366.729C258.113 365.197 257.947 364.538 261.467 366.383C264.986 368.229 265.218 369.465 265.733 370.882C266.247 372.3 259.674 382.303 259.674 382.303L261.998 383.523C261.998 383.523 260.637 386.654 262.944 387.329L252.054 384.116Z" stroke="#263238" stroke-linecap="round" stroke-linejoin="round"/>
<path d="M326.671 331.99L330.755 330.721L334.324 334.297C334.324 334.297 341.379 335.203 338.623 338.252C335.868 341.301 330.606 341.268 330.606 341.268L328.68 344.86L325.36 340.856L323.7 337.56L324.945 335.187L326.671 331.99Z" stroke="#263238" stroke-linecap="round" stroke-linejoin="round"/>
<path d="M332.531 316.696C331.696 317.681 331.084 318.833 330.738 320.075L330.473 321.624L323.833 318.163L327.452 311.357L332.531 316.696Z" stroke="#263238" stroke-linecap="round" stroke-linejoin="round"/>
<path d="M692.768 705.426C683.87 712.776 615.329 759.481 517.522 751.949C512.259 707.75 492.19 526.173 515.015 497.696C515.015 497.696 570.393 471.476 621.404 482.485C672.416 493.494 692.27 504.041 695.905 513.171C698.661 520.076 694.727 648.653 692.768 705.426Z" fill="#263238"/>
<path d="M619.711 501.882C590.329 527.146 552.481 521.806 553.311 502.409C553.444 499.377 556.714 495.619 556.714 495.619L555.569 493.873L550.589 486.407C546.953 480.82 542.405 473.8 539.234 468.691C536.578 464.34 602.796 423.899 602.796 447.152C602.796 479.914 618.997 486.078 618.997 486.078C625.106 488.517 630.8 492.373 619.711 501.882Z" fill="white" stroke="#263238" stroke-linecap="round" stroke-linejoin="round"/>
<path d="M638.287 551.915C638.287 551.915 632.36 572.087 635.166 577.871" stroke="white" stroke-linecap="round" stroke-linejoin="round"/>
<path d="M631.364 493.345C631.364 512.808 572.883 531.876 555.751 512.347" stroke="white" stroke-linecap="round" stroke-linejoin="round"/>
<path d="M583.258 470.883C583.258 470.883 579.34 485.55 561.08 497.004C560.209 495.519 558.803 494.418 557.146 493.922C556.596 493.833 556.036 493.833 555.486 493.922L550.506 486.457C559.951 479.7 583.258 470.883 583.258 470.883Z" fill="#263238"/>
<path d="M591.458 452.854C591.458 452.854 591.259 467.323 588.138 470.273C564.981 492.324 542.339 494.07 538.604 488.253C513.455 449.096 519.397 438.813 516.841 432.106C512.309 420.339 506.748 401.123 509.205 389.488C514.683 363.499 563.985 343.344 589.947 369.482C602.397 381.99 606.332 409.133 603.709 431.743" fill="white"/>
<path d="M591.458 452.854C591.458 452.854 591.259 467.323 588.138 470.273C564.981 492.324 542.339 494.07 538.604 488.253C513.455 449.096 519.397 438.813 516.841 432.106C512.309 420.339 506.748 401.123 509.205 389.488C514.683 363.499 563.985 343.344 589.947 369.482C602.397 381.99 606.332 409.133 603.709 431.743" stroke="#263238" stroke-linecap="round" stroke-linejoin="round"/>
<path d="M520.012 420.009C520.012 420.009 513.089 416.928 511.595 420.603" stroke="#263238" stroke-linecap="round" stroke-linejoin="round"/>
<path d="M536.794 420.24C536.794 420.24 551.186 414.258 557.66 421.525" stroke="#263238" stroke-linecap="round" stroke-linejoin="round"/>
<path d="M552.78 430.375C553.012 432.518 551.967 434.38 550.423 434.561C548.879 434.742 547.451 433.111 547.219 430.969C546.987 428.826 548.032 426.947 549.576 426.783C551.12 426.618 552.481 428.233 552.78 430.375Z" fill="#263238"/>
<path d="M524.56 431.018C524.809 433.16 523.747 435.039 522.203 435.204C520.659 435.369 519.231 433.77 518.999 431.628C518.767 429.485 519.812 427.607 521.356 427.442C522.9 427.277 524.294 428.876 524.56 431.018Z" fill="#263238"/>
<path d="M525.257 425.382C527.266 428.595 526.17 434.083 523.514 441.615C520.858 449.146 523.199 451.865 533.391 452.623" fill="white"/>
<path d="M525.257 425.382C527.266 428.595 526.17 434.083 523.514 441.615C520.858 449.146 523.199 451.865 533.391 452.623" stroke="#263238" stroke-linecap="round" stroke-linejoin="round"/>
<path d="M533.391 465.659C533.391 465.659 546.671 464.456 552.747 461.143" stroke="#263238" stroke-linecap="round" stroke-linejoin="round"/>
<path d="M617.52 390.939C617.52 381.149 607.792 361.06 590.728 358.803C580.917 348.618 566.94 344.877 549.975 348.75C510.765 357.682 498.83 396.113 497.12 402.475C496.954 403.068 496.871 403.397 496.871 403.397L507.362 400.761L502.847 409.512L508.342 413.121L507.08 414.505L513.455 420.603L511.463 409.462C512.691 402.277 521.024 392.224 521.024 392.224C517.983 396.137 516.087 400.808 515.546 405.721C518.866 397.168 538.786 389.241 538.786 389.241C532.329 394.449 528.826 404.633 528.826 404.633C534.968 397.119 549.36 392.257 558.573 389.67C561.678 397.102 566.608 404.864 573.646 409.165C580.286 413.22 580.054 421.591 580.054 421.591C587.198 426.521 592.461 433.697 594.994 441.961L603.028 452.87C603.028 452.87 617.52 435.22 617.52 390.939Z" fill="#263238"/>
<path d="M583.706 424.393C581.017 418.674 590.777 403.183 597.7 405.095C601.584 406.183 606.664 413.22 607.66 420.603C608.656 427.986 603.393 442.027 597.783 445.075C594.214 447.053 591.275 441.664 591.275 441.664" fill="white"/>
<path d="M583.706 424.393C581.017 418.674 590.777 403.183 597.7 405.095C601.584 406.183 606.664 413.22 607.66 420.603C608.656 427.986 603.393 442.027 597.783 445.075C594.214 447.053 591.275 441.664 591.275 441.664" stroke="#263238" stroke-linecap="round" stroke-linejoin="round"/>
<path d="M160.207 704.108L347.77 660.568L738.999 705.426L638.27 773.818L160.207 704.108Z" fill="white"/>
<path d="M160.207 704.108L347.77 660.568L738.999 705.426" fill="white"/>
<path d="M160.207 704.108L347.77 660.568L738.999 705.426" stroke="#263238" stroke-linecap="round" stroke-linejoin="round"/>
<path d="M322.521 712.842L398.45 679.52L494.448 684.447L451.752 720.687L322.521 712.842Z" fill="white" stroke="#263238" stroke-linecap="round" stroke-linejoin="round"/>
<path d="M518.717 496.048C494.365 505.936 489.119 528.168 447.735 616.022C447.735 616.022 429.359 619.763 419.515 641.929C409.671 664.095 426.155 681.596 445.129 681.003C445.129 681.003 452.748 687.595 468.369 686.919C483.99 686.244 553.029 581.365 553.029 581.365L518.717 496.048Z" fill="#263238"/>
<path d="M454.989 621.181C465.879 630.805 472.137 644.928 468.817 660.584" stroke="white" stroke-linecap="round" stroke-linejoin="round"/>
<path d="M465.497 625.811C465.497 625.811 478.877 628.712 480.952 645.719" stroke="white" stroke-linecap="round" stroke-linejoin="round"/>
<path d="M504.64 576.042C498.318 560.558 496.134 543.715 498.299 527.146" stroke="white" stroke-linecap="round" stroke-linejoin="round"/>
<path d="M502.748 553.629C501.735 560.551 508.939 597.4 508.89 636.144" stroke="white" stroke-linecap="round" stroke-linejoin="round"/>
<path d="M684.783 503.332C715.244 518.527 718.863 565.28 690.128 621.181C669.827 660.634 641.806 718.891 624.077 722.796C606.348 726.702 589.051 715.743 589.051 715.743C589.051 715.743 574.111 715.051 569.596 704.504C557.245 675.68 588.636 639.259 600.92 647.977C600.92 647.977 640.362 562.825 647.549 557.452" fill="#263238"/>
<path d="M566.774 686.985C562.74 667.094 594.28 643.626 600.92 647.977C600.92 647.977 624.343 649.279 627.845 665.364" stroke="white" stroke-linecap="round" stroke-linejoin="round"/>
<path d="M652.579 691.221C666.291 667.209 690.128 621.181 690.128 621.181" stroke="white" stroke-linecap="round" stroke-linejoin="round"/>
<path d="M600.92 647.977C600.92 647.977 617.337 638.221 629.605 647.45" stroke="white" stroke-linecap="round" stroke-linejoin="round"/>
<path d="M606.531 636.128C606.531 636.128 615.594 616.352 624.791 598.224C633.987 580.096 655.036 553.25 663.784 551.948" stroke="white" stroke-linecap="round" stroke-linejoin="round"/>
<path d="M433.526 671.675C431.554 671.58 429.628 671.057 427.882 670.143C399.662 655.525 377.716 631.365 364.503 614.028C359.366 607.402 354.637 600.473 350.343 593.28L357.116 564.473C357.116 564.473 363.49 580.953 389.104 597.153C414.718 613.353 445.146 618.692 454.989 635.057C463.704 649.312 448.349 672.384 433.526 671.675Z" fill="white"/>
<mask id="mask1_86_49" style="mask-type:luminance" maskUnits="userSpaceOnUse" x="350" y="564" width="108" height="108">
<path d="M433.526 671.675C431.554 671.58 429.628 671.057 427.882 670.143C399.662 655.525 377.716 631.365 364.503 614.028C359.366 607.402 354.637 600.473 350.343 593.28L357.116 564.473C357.116 564.473 363.49 580.953 389.104 597.153C414.718 613.353 445.146 618.692 454.989 635.057C463.704 649.312 448.349 672.384 433.526 671.675Z" fill="white"/>
</mask>
<g mask="url(#mask1_86_49)">
<path opacity="0.4" d="M433.526 671.675C433.211 669.591 432.654 667.551 431.866 665.594C425.939 650.861 390.083 621.576 390.083 621.576C381.551 621.313 372.172 617.786 364.536 614.028C359.387 607.403 354.648 600.474 350.343 593.28L357.116 564.473C357.116 564.473 363.49 580.953 389.104 597.153C414.718 613.353 445.146 618.692 454.989 635.057C463.704 649.312 448.349 672.384 433.526 671.675Z" fill="#2AEF88"/>
</g>
<path d="M433.526 671.675C431.554 671.58 429.628 671.057 427.882 670.143C399.662 655.525 377.716 631.365 364.503 614.028C359.366 607.402 354.637 600.473 350.343 593.28L357.116 564.473C357.116 564.473 363.49 580.953 389.104 597.153C414.718 613.353 445.146 618.692 454.989 635.057C463.704 649.312 448.349 672.384 433.526 671.675Z" stroke="#263238" stroke-linecap="round" stroke-linejoin="round"/>
<path d="M369.616 591.533C369.616 591.533 366.113 606.893 356.883 603.448C351.903 601.586 342.309 586.82 340.499 579.371L369.616 591.533Z" fill="white" stroke="#263238" stroke-linecap="round" stroke-linejoin="round"/>
<path d="M328.929 496.954L336.465 493.098C336.465 493.098 357.763 493.279 370.977 503.942C382.979 513.632 389.071 528.81 389.071 528.81C389.071 528.81 435.7 503.25 483.326 517.917L502.748 625.383L413.456 631.184L357.73 578.629L328.929 496.954Z" fill="white" stroke="#263238" stroke-linecap="round" stroke-linejoin="round"/>
<path d="M508.89 629.684C508.89 629.684 498.415 629.371 484.405 629.833C463.223 630.492 433.957 632.865 420.578 640.594L419.947 640.38L407.696 636.128L407.447 635.765C405.189 632.469 386.979 606.513 360.967 595.95L324.181 493.906C324.181 493.906 362.361 495.554 383.228 529.799L393.702 533.556C393.702 533.556 456.035 515.231 490.928 521.823L508.89 629.684Z" fill="#2AEF88"/>
<mask id="mask2_86_49" style="mask-type:luminance" maskUnits="userSpaceOnUse" x="324" y="493" width="185" height="148">
<path d="M508.89 629.684C508.89 629.684 498.415 629.371 484.405 629.833C463.223 630.492 433.957 632.865 420.578 640.594L419.947 640.38L407.696 636.128L407.447 635.765C405.189 632.469 386.979 606.513 360.967 595.95L324.181 493.906C324.181 493.906 362.361 495.554 383.228 529.799L393.702 533.556C393.702 533.556 456.035 515.231 490.928 521.823L508.89 629.684Z" fill="white"/>
</mask>
<g mask="url(#mask2_86_49)">
<path opacity="0.3" d="M407.447 635.782C405.189 632.486 386.979 606.53 360.967 595.966L324.181 493.922C324.181 493.922 362.361 495.57 383.228 529.815L407.447 635.782Z" fill="black" fill-opacity="0.7"/>
<path opacity="0.3" d="M484.405 629.833C463.223 630.492 433.957 632.865 420.578 640.594L419.947 640.38L395.478 537.248C395.478 537.248 415.498 532.782 421.657 535.04C421.64 535.073 462.343 564.885 484.405 629.833Z" fill="black" fill-opacity="0.7"/>
</g>
<path d="M508.89 629.684C508.89 629.684 498.415 629.371 484.405 629.833C463.223 630.492 433.957 632.865 420.578 640.594L419.947 640.38L407.696 636.128L407.447 635.765C405.189 632.469 386.979 606.513 360.967 595.95L324.181 493.906C324.181 493.906 362.361 495.554 383.228 529.799L393.702 533.557C393.702 533.557 456.035 515.231 490.928 521.823L508.89 629.684Z" stroke="#263238" stroke-linecap="round" stroke-linejoin="round"/>
<path d="M393.735 533.573L417.756 632.502" stroke="#263238" stroke-linecap="round" stroke-linejoin="round"/>
<path d="M407.696 636.144L384.356 537.281" stroke="#263238" stroke-linecap="round" stroke-linejoin="round"/>
<path d="M348.401 593.362C343.072 591.896 332.332 560.106 337.246 546.411C337.246 546.411 343.089 536.342 345.546 535.649C349.264 534.578 364.27 534.891 363.54 537.396C361.88 543.197 350.36 543.098 350.36 543.098L346.625 549.888L346.774 553.629C346.774 553.629 352.202 549.707 354.194 549.822C355.223 549.822 360.535 552.459 364.752 554.667C368.354 556.563 370.562 557.601 369.732 559.315C367.059 565.017 355.688 560.963 355.688 560.963L351.405 567.373C351.405 567.373 355.539 568.082 357.348 568.28C359.158 568.478 374.181 578.415 373.732 579.651C371.956 584.496 357.713 579.256 357.713 579.256L355.19 581.349C355.19 581.349 365.681 584.035 366.81 584.43C368.47 585.04 374.861 589.918 374.762 590.478C373.998 594.763 365.183 591.616 365.183 591.616L357.464 591.302C356.289 592.332 354.874 593.057 353.348 593.412" fill="white"/>
<path d="M348.401 593.362C343.072 591.896 332.332 560.106 337.246 546.411C337.246 546.411 343.089 536.342 345.546 535.649C349.264 534.578 364.27 534.891 363.54 537.396C361.88 543.197 350.36 543.098 350.36 543.098L346.625 549.888L346.774 553.629C346.774 553.629 352.202 549.707 354.194 549.822C355.223 549.822 360.535 552.459 364.752 554.667C368.354 556.563 370.562 557.601 369.732 559.315C367.059 565.017 355.688 560.963 355.688 560.963L351.405 567.373C351.405 567.373 355.539 568.082 357.348 568.28C359.158 568.478 374.181 578.415 373.732 579.651C371.956 584.496 357.713 579.256 357.713 579.256L355.19 581.349C355.19 581.349 365.681 584.035 366.81 584.43C368.47 585.04 374.861 589.918 374.762 590.478C373.998 594.763 365.183 591.616 365.183 591.616L357.464 591.302C356.289 592.332 354.874 593.057 353.348 593.412" stroke="#263238" stroke-linecap="round" stroke-linejoin="round"/>
<path d="M346.708 553.629C346.708 553.629 341.728 557.782 340.449 558.985C339.171 560.188 339.487 564.011 339.487 564.011" stroke="#263238" stroke-linecap="round" stroke-linejoin="round"/>
<path d="M343.105 572.449C343.105 576.635 345.927 579.173 347.222 580.524C348.517 581.876 345.147 585.551 348.882 588.188" stroke="#263238" stroke-linecap="round" stroke-linejoin="round"/>
<path d="M588.985 705.13C578.444 707.981 566.99 689.589 553.012 669.517C543.783 656.333 533.458 642.275 521.589 633.26C520.642 632.552 519.68 631.86 518.717 631.201L525.656 596.592C540.064 604.091 548.995 616.105 563.952 628.448C588.022 648.34 609.353 660.551 615.262 669.352C621.172 678.152 607.045 700.235 588.985 705.13Z" fill="white"/>
<mask id="mask3_86_49" style="mask-type:luminance" maskUnits="userSpaceOnUse" x="518" y="596" width="99" height="110">
<path d="M588.985 705.13C578.444 707.981 566.99 689.589 553.012 669.517C543.783 656.333 533.458 642.275 521.589 633.26C520.642 632.552 519.68 631.86 518.717 631.201L525.656 596.592C540.064 604.091 548.995 616.105 563.952 628.448C588.022 648.34 609.353 660.551 615.262 669.352C621.172 678.152 607.045 700.235 588.985 705.13Z" fill="white"/>
</mask>
<g mask="url(#mask3_86_49)">
<path opacity="0.4" d="M553.012 669.5C543.783 656.316 533.458 642.259 521.589 633.244C523.153 633.323 524.717 633.088 526.187 632.552C526.187 632.552 544.945 647.664 553.012 669.5Z" fill="#2AEF88"/>
</g>
<path d="M588.985 705.13C578.444 707.981 566.99 689.589 553.012 669.516C543.783 656.332 533.458 642.275 521.589 633.26C520.642 632.552 519.68 631.86 518.717 631.2L525.656 596.592C540.064 604.091 548.995 616.105 563.952 628.448C588.022 648.34 609.353 660.551 615.262 669.352C621.172 678.152 607.045 700.235 588.985 705.13Z" stroke="#263238" stroke-linecap="round" stroke-linejoin="round"/>
<path d="M529.54 629.833C528.819 631.112 527.63 632.068 526.22 632.502C525.845 632.648 525.463 632.775 525.075 632.881H524.759C513.621 635.765 488.555 629.767 488.555 629.767C488.555 629.767 472.137 622.021 471.141 620.192C470.447 618.742 469.832 617.257 469.299 615.742L468.85 614.44C468.85 614.44 462.941 611.144 462.21 608.573C461.48 606.003 460.235 605.277 463.87 604.816C467.506 604.355 487.11 604.816 487.11 604.816L465.779 596.18C465.779 596.18 451.653 589.111 450.341 586.622C449.03 584.134 447.387 582.486 454.608 583.474C461.829 584.463 477.599 589.012 477.599 589.012L490.032 591.632L477.682 586.408C477.682 586.408 453.379 583.491 457.977 575.992H471.772C479.587 576.335 487.36 577.316 495.012 578.926C499.029 580.145 525.589 596.527 525.589 596.527" fill="white"/>
<mask id="mask4_86_49" style="mask-type:luminance" maskUnits="userSpaceOnUse" x="449" y="575" width="81" height="59">
<path d="M529.54 629.833C528.819 631.112 527.63 632.068 526.22 632.502C525.845 632.648 525.463 632.775 525.075 632.881H524.759C513.621 635.765 488.555 629.767 488.555 629.767C488.555 629.767 472.137 622.021 471.141 620.192C470.447 618.742 469.832 617.257 469.299 615.742L468.85 614.44C468.85 614.44 462.941 611.144 462.21 608.573C461.48 606.003 460.235 605.277 463.87 604.816C467.506 604.355 487.11 604.816 487.11 604.816L465.779 596.18C465.779 596.18 451.653 589.111 450.341 586.622C449.03 584.134 447.387 582.486 454.608 583.474C461.829 584.463 477.599 589.012 477.599 589.012L490.032 591.632L477.682 586.408C477.682 586.408 453.379 583.491 457.977 575.992H471.772C479.587 576.335 487.36 577.316 495.012 578.926C499.029 580.145 525.589 596.527 525.589 596.527" fill="white"/>
</mask>
<g mask="url(#mask4_86_49)">
<path opacity="0.4" d="M524.726 632.947C513.587 635.831 488.521 629.833 488.521 629.833C488.521 629.833 472.104 622.087 471.108 620.258C470.414 618.808 469.799 617.323 469.265 615.808L489.418 618C488.713 619.26 488.343 620.678 488.343 622.12C488.343 623.562 488.713 624.98 489.418 626.24C491.659 630.245 517.19 634.299 524.726 632.947Z" fill="#2AEF88"/>
</g>
<path d="M529.54 629.833C528.819 631.112 527.63 632.068 526.22 632.502C525.845 632.648 525.463 632.775 525.075 632.881H524.759C513.621 635.765 488.555 629.767 488.555 629.767C488.555 629.767 472.137 622.021 471.141 620.192C470.447 618.742 469.832 617.257 469.299 615.742L468.85 614.44C468.85 614.44 462.941 611.144 462.21 608.573C461.48 606.003 460.235 605.277 463.87 604.816C467.506 604.355 487.11 604.816 487.11 604.816L465.779 596.18C465.779 596.18 451.653 589.111 450.341 586.622C449.03 584.134 447.387 582.486 454.608 583.474C461.829 584.463 477.599 589.012 477.599 589.012L490.032 591.632L477.682 586.408C477.682 586.408 453.379 583.491 457.977 575.992H471.772C479.587 576.335 487.36 577.316 495.012 578.926C499.029 580.145 525.589 596.527 525.589 596.527" stroke="#263238" stroke-linecap="round" stroke-linejoin="round"/>
<path d="M468.817 614.506L493.07 618.049" stroke="#263238" stroke-linecap="round" stroke-linejoin="round"/>
<path d="M227.055 688.238L287.844 706.366L399.064 681.168C399.064 681.168 331.137 662.018 330.506 662.496C329.875 662.974 227.055 688.238 227.055 688.238Z" fill="#2AEF88"/>
<mask id="mask5_86_49" style="mask-type:luminance" maskUnits="userSpaceOnUse" x="227" y="662" width="173" height="45">
<path d="M227.055 688.238L287.844 706.366L399.064 681.168C399.064 681.168 331.137 662.018 330.506 662.496C329.875 662.974 227.055 688.238 227.055 688.238Z" fill="white"/>
</mask>
<g mask="url(#mask5_86_49)">
<path opacity="0.3" d="M227.055 688.238L287.844 706.366L399.064 681.168C399.064 681.168 331.137 662.018 330.506 662.496C329.875 662.974 227.055 688.238 227.055 688.238Z" fill="black" fill-opacity="0.7"/>
</g>
<path d="M227.055 688.238L287.844 706.366L399.064 681.168C399.064 681.168 331.137 662.018 330.506 662.496C329.875 662.974 227.055 688.238 227.055 688.238Z" stroke="#263238" stroke-linecap="round" stroke-linejoin="round"/>
<path d="M227.935 666.979C223.668 667.275 222.606 682.536 227.055 688.238L325.26 668L333.129 649.51L227.935 666.979Z" fill="#2AEF88"/>
<mask id="mask6_86_49" style="mask-type:luminance" maskUnits="userSpaceOnUse" x="224" y="649" width="110" height="40">
<path d="M227.935 666.979C223.668 667.275 222.606 682.536 227.055 688.238L325.26 668L333.129 649.51L227.935 666.979Z" fill="white"/>
</mask>
<g mask="url(#mask6_86_49)">
<path opacity="0.3" d="M227.935 666.979C223.668 667.275 222.606 682.536 227.055 688.238L325.26 668L333.129 649.51L227.935 666.979Z" fill="black" fill-opacity="0.7"/>
</g>
<path d="M227.935 666.979C223.668 667.275 222.606 682.536 227.055 688.238L325.26 668L333.129 649.51L227.935 666.979Z" stroke="#263238" stroke-linecap="round" stroke-linejoin="round"/>
<path d="M394.3 666.764C394.3 666.764 392.839 674.79 393.785 679.734L287.728 703.564L231.819 687.216C231.819 687.216 226.009 677.015 231.072 669.088L333.228 651.866L394.3 666.764Z" fill="white" stroke="#263238" stroke-linecap="round" stroke-linejoin="round"/>
<path d="M227.935 666.979L333.129 649.51L398.45 665.94L288.591 687.677L227.935 666.979Z" fill="#2AEF88" stroke="#263238" stroke-linecap="round" stroke-linejoin="round"/>
<path d="M231.67 676.735L287.296 693.182L378.347 674.988" stroke="#263238" stroke-linecap="round" stroke-linejoin="round"/>
<path d="M393.486 676.669L295.58 697.401" stroke="#263238" stroke-linecap="round" stroke-linejoin="round"/>
<path d="M232.981 683.211C233.828 683.294 274.913 695.851 274.913 695.851" stroke="#263238" stroke-linecap="round" stroke-linejoin="round"/>
<path d="M385.485 672.862L393.271 671.609" stroke="#263238" stroke-linecap="round" stroke-linejoin="round"/>
<path d="M285.487 698.9L281.353 697.977" stroke="#263238" stroke-linecap="round" stroke-linejoin="round"/>
<path d="M231.072 669.088C233.249 671.578 234.509 674.728 234.644 678.022C234.78 681.316 233.784 684.558 231.819 687.216C230 684.566 228.966 681.462 228.834 678.258C228.702 675.054 229.477 671.877 231.072 669.088Z" fill="#263238"/>
<mask id="mask7_86_49" style="mask-type:luminance" maskUnits="userSpaceOnUse" x="228" y="669" width="7" height="19">
<path d="M231.072 669.088C233.249 671.578 234.509 674.728 234.644 678.022C234.78 681.316 233.784 684.558 231.819 687.216C230 684.566 228.966 681.462 228.834 678.258C228.702 675.054 229.477 671.877 231.072 669.088Z" fill="white"/>
</mask>
<g mask="url(#mask7_86_49)">
<path opacity="0.3" d="M231.072 669.088C233.249 671.578 234.509 674.728 234.644 678.022C234.78 681.316 233.784 684.558 231.819 687.216C230 684.566 228.966 681.462 228.834 678.258C228.702 675.054 229.477 671.877 231.072 669.088Z" fill="white" fill-opacity="0.7"/>
</g>
<path d="M231.072 669.088C233.249 671.578 234.509 674.728 234.644 678.022C234.78 681.316 233.784 684.558 231.819 687.216C230 684.566 228.966 681.462 228.834 678.258C228.702 675.054 229.477 671.877 231.072 669.088Z" stroke="#263238" stroke-linecap="round" stroke-linejoin="round"/>
<path d="M458.276 693.182L564.433 697.5L554.091 733.772L423.499 728.828L458.276 693.182Z" fill="white"/>
<mask id="mask8_86_49" style="mask-type:luminance" maskUnits="userSpaceOnUse" x="423" y="693" width="142" height="41">
<path d="M458.276 693.182L564.433 697.5L554.091 733.772L423.499 728.828L458.276 693.182Z" fill="white"/>
</mask>
<g mask="url(#mask8_86_49)">
<path opacity="0.4" d="M458.276 693.182L564.433 697.5L554.091 733.772L423.499 728.828L458.276 693.182Z" fill="#2AEF88"/>
</g>
<path d="M458.276 693.182L564.433 697.5L554.091 733.772L423.499 728.828L458.276 693.182Z" stroke="#263238" stroke-linecap="round" stroke-linejoin="round"/>
</svg>
