<svg width="98" height="122" viewBox="0 0 121 165" fill="none" xmlns="http://www.w3.org/2000/svg">
<path d="M54.1434 0.25H66.5465L69.9573 2.98155L75.2286 12.0867V20.2814H44.8411V12.0867L46.3915 9.65867L50.4225 2.67804L54.1434 0.25Z" fill="#21BC6B"/>
<path d="M51.9729 10.3014L60.6551 9.65869L66.8566 9.98005L70.2675 10.9441L71.8179 12.8723L70.2675 20.5849H50.1124L49.1822 16.4072L48.252 12.8723L48.562 11.5868L51.9729 10.3014Z" fill="white"/>
<rect x="11.9728" y="54.274" width="96.7443" height="110.476" rx="24" fill="#21BC6B"/>
<ellipse cx="60.3449" cy="66.8933" rx="48.3721" ry="47.0434" fill="#21BC6B"/>
<rect x="21.8955" y="97.9788" width="77.5194" height="51.5959" rx="16" fill="white"/>
<rect x="28.7172" y="104.049" width="64.4961" height="40.0627" rx="8" fill="#21BC6B"/>
<rect x="42.3602" y="113.761" width="45.2714" height="3.64207" rx="1" fill="white"/>
<path d="M0.5 102.228L9.49225 93.4262V155.038L0.5 140.773V102.228Z" fill="#21BC6B"/>
<path d="M120.5 102.488L111.818 93.7297V155.038L120.5 140.843V102.488Z" fill="#21BC6B"/>
<path d="M68.717 60.3448V53.0592C68.7167 52.7398 68.6338 52.4261 68.4766 52.1495C68.3193 51.873 68.0933 51.6434 67.8213 51.4837L61.5508 47.8409C61.2785 47.681 60.9695 47.5968 60.655 47.5968C60.3405 47.5968 60.0316 47.681 59.7593 47.8409L53.4888 51.4837C53.2167 51.6434 52.9907 51.873 52.8335 52.1495C52.6763 52.4261 52.5933 52.7398 52.593 53.0592V60.3448C52.5933 60.6642 52.6763 60.9779 52.8335 61.2545C52.9907 61.531 53.2167 61.7606 53.4888 61.9203L59.7593 65.5631C60.0316 65.723 60.3405 65.8072 60.655 65.8072C60.9695 65.8072 61.2785 65.723 61.5508 65.5631L67.8213 61.9203C68.0933 61.7606 68.3193 61.531 68.4766 61.2545C68.6338 60.9779 68.7167 60.6642 68.717 60.3448Z" stroke="white" stroke-width="3" stroke-linecap="round" stroke-linejoin="round"/>
<rect x="56.9343" y="45.7758" width="7.44186" height="6.07011" fill="#21BC6B"/>
<path d="M60.6553 51.2389V45.1688" stroke="white" stroke-width="3" stroke-linecap="round" stroke-linejoin="round"/>
</svg>
